<svg width="268" height="88" viewBox="0 0 268 88" fill="none" xmlns="http://www.w3.org/2000/svg">
<path d="M31.0001 55.4667V1H6L4.00005 10.5C6.50005 16.5 4.40004 28.3 6 33.5C7.99995 40 2.00005 49.5 1.50005 53C1.10005 55.8 3.00005 76.8333 4.00005 87L31.0001 55.4667Z" fill="#CCCCCC" fill-opacity="0.8"/>
<path d="M240 1V55.4667L267 87C265.333 77.9778 262.2 59.04 263 55.4667C264 51 267 38.5 267 33.5C267 28.5 263 14 263 10.5V1H240Z" fill="#CCCCCC" fill-opacity="0.8"/>
<path d="M240 87H267L240 55.4667V87Z" fill="black"/>
<path d="M4.00005 87H31.0001V55.4667L4.00005 87Z" fill="black"/>
<path d="M4.00005 87H31.0001V55.4667M4.00005 87L31.0001 55.4667M4.00005 87C3.00005 76.8333 1.10005 55.8 1.50005 53C2.00005 49.5 7.99995 40 6 33.5C4.40004 28.3 6.50005 16.5 4.00005 10.5L6 1H31.0001V55.4667M267 87H240V55.4667M267 87L240 55.4667M267 87C265.333 77.9778 262.2 59.04 263 55.4667C264 51 267 38.5 267 33.5C267 28.5 263 14 263 10.5M240 55.4667V1H263M263 10.5C263 7.7 263 3 263 1M263 10.5V1" stroke="black"/>
</svg>
