<svg width="103" height="333" viewBox="0 0 103 333" fill="none" xmlns="http://www.w3.org/2000/svg">
<path d="M3.8995 25C-0.100501 13.4 2.23283 4.16667 3.8995 1H99.5668C98.4001 4.66666 95.3668 15.1 92.5668 27.5C89.0668 43 92.5668 44.5 99.5668 63.5C106.567 82.5 96.0668 85 92.5668 108C89.0668 131 96.0668 133.5 99.5668 150C103.067 166.5 96.5668 175 92.5668 192.5C88.5668 210 92.5668 212 99.5668 227.5C106.567 243 99.5668 255.5 92.5668 268C85.5668 280.5 94.5668 294 99.5668 308.5C103.567 320.1 101.233 329.333 99.5668 332.5H3.8995C5.06618 328.833 8.09953 318.4 10.8995 306C14.3995 290.5 10.8995 289 3.8995 270C-3.10051 251 7.39954 248.5 10.8995 225.5C14.3995 202.5 7.39954 200 3.8995 183.5C0.399463 167 6.89954 158.5 10.8995 141C14.8995 123.5 10.8995 121.5 3.8995 106C-3.10051 90.5 3.8995 78 10.8995 65.5C17.8995 53 8.8995 39.5 3.8995 25Z" fill="white" stroke="black"/>
</svg>
