<svg width="163" height="785" viewBox="0 0 163 785" fill="none" xmlns="http://www.w3.org/2000/svg">
<path d="M4.56009 784H32.0237V750L4.56009 784Z" fill="#CCCCCC" fill-opacity="0.8"/>
<path d="M4.56009 784H32.0237V750L4.56009 784Z" fill="black"/>
<path d="M132.704 784H160.167L132.704 750V784Z" fill="black"/>
<path fill-rule="evenodd" clip-rule="evenodd" d="M32.0237 372.117V750L4.56009 784C3.37339 773.515 1 750.184 1 740.747C1 735.551 2.28275 728.639 3.58783 721.606C5.24567 712.673 6.93955 703.545 6.08585 697.495C4.56009 686.682 1 661.123 1 635.565C1 624.82 2.25835 614.597 3.45254 604.895C5.09902 591.518 6.62355 579.132 4.56009 567.737C1.78392 552.406 3.33748 512.566 4.15627 491.569C4.38747 485.64 4.56009 481.214 4.56009 479.265C4.56009 475.159 3.79328 465.76 2.97142 455.686C2.02241 444.053 1 431.521 1 425.2C1 420.386 2.10102 413.117 3.30077 405.195C5.04101 393.706 6.98897 380.845 6.08585 372.117H32.0237Z" fill="#CCCCCC" fill-opacity="0.8"/>
<path fill-rule="evenodd" clip-rule="evenodd" d="M132.704 750V372.117H152.994C153.338 373.65 153.703 375.109 154.047 376.484C154.879 379.815 155.59 382.657 155.59 384.896C156.265 393.816 156.044 402.592 155.819 411.511C155.705 416.025 155.59 420.575 155.59 425.2C155.59 427.166 155.518 429.667 155.437 432.499C155.143 442.72 154.726 457.249 157.116 466.486C159.078 474.072 158.516 482.471 157.866 492.206C157.504 497.609 157.116 503.423 157.116 509.739C157.116 519.247 156.675 527.239 156.267 534.634C155.916 541 155.59 546.924 155.59 552.992C155.59 560.465 156.374 564.908 157.346 570.417C158.291 575.776 159.415 582.145 160.167 593.295C161.089 606.957 159.783 617.029 158.604 626.115C157.833 632.066 157.116 637.593 157.116 643.429C157.116 651.178 157.958 655.94 158.98 661.711C159.902 666.922 160.969 672.955 161.693 682.75C162.851 698.421 160.492 710.694 158.621 720.427C158.028 723.515 157.483 726.347 157.116 728.951C155.895 737.602 158.641 769.255 160.167 784L132.704 750Z" fill="#CCCCCC" fill-opacity="0.8"/>
<path d="M4.56009 784H32.0237V750M4.56009 784L32.0237 750M4.56009 784C3.37339 773.515 1 750.184 1 740.747C1 735.551 2.28275 728.639 3.58783 721.606C5.24567 712.673 6.93955 703.545 6.08585 697.495C4.56009 686.682 1 661.123 1 635.565C1 624.82 2.25835 614.597 3.45254 604.895C5.09902 591.518 6.62355 579.132 4.56009 567.737C1.78392 552.406 3.33748 512.566 4.15627 491.569C4.38747 485.64 4.56009 481.214 4.56009 479.265C4.56009 475.159 3.79328 465.76 2.97142 455.686C2.02241 444.053 1 431.521 1 425.2C1 420.386 2.10102 413.117 3.30077 405.195C5.04101 393.706 6.98897 380.845 6.08585 372.117M32.0237 750V372.117M160.167 784H132.704V750M160.167 784L132.704 750M160.167 784C158.641 769.255 155.895 737.602 157.116 728.951C157.483 726.347 158.028 723.515 158.621 720.427C160.492 710.694 162.851 698.421 161.693 682.75C160.969 672.955 159.902 666.922 158.98 661.711C157.958 655.94 157.116 651.178 157.116 643.429C157.116 637.593 157.833 632.066 158.604 626.115C159.783 617.029 161.089 606.957 160.167 593.295C159.415 582.145 158.291 575.776 157.346 570.417C156.374 564.908 155.59 560.465 155.59 552.992C155.59 546.924 155.916 541 156.267 534.634C156.675 527.239 157.116 519.247 157.116 509.739C157.116 503.423 157.504 497.609 157.866 492.206C158.516 482.471 159.078 474.072 157.116 466.486C154.726 457.249 155.143 442.72 155.437 432.499C155.518 429.667 155.59 427.166 155.59 425.2C155.59 420.575 155.705 416.025 155.819 411.511C156.044 402.592 156.265 393.816 155.59 384.896C155.59 382.657 154.879 379.815 154.047 376.484C153.703 375.109 153.338 373.65 152.994 372.117M132.704 750V372.117M6.08585 372.117C4.86524 360.321 4.56009 333.779 4.56009 321.983V0.5H32.0237V321V372.117M6.08585 372.117H32.0237M132.704 372.117V321.983V0.5H157.5V312.5L160.167 321.983C159.15 325.26 156.2 335.549 152.538 350.49C150.56 358.564 151.61 365.948 152.994 372.117M132.704 372.117H152.994" stroke="black"/>
</svg>
