<svg width="214" height="322" viewBox="0 0 214 322" fill="none" xmlns="http://www.w3.org/2000/svg">
<path d="M4 321H31V289.467L4 321Z" fill="#CCCCCC" fill-opacity="0.8"/>
<path d="M4 321H31V289.467L4 321Z" fill="black"/>
<path d="M184 321H211L184 289.534V321Z" fill="black"/>
<path d="M184 86V289.534L211 321C209.5 313.5 206.8 297.4 208 293C209.5 287.5 214 280 212.5 269.5C211 259 208 257 208 249.5C208 242 212.5 235.5 211 224C209.5 212.5 206.5 211 206.5 203.5C206.5 196.829 208 190.5 208 181.5C208 172.5 211 165.5 208 159.5C205 153.5 206.5 143.11 206.5 138.5C206.5 131.5 207.5 124.833 206.5 118C206.5 114.5 199.9 108.1 203.5 100.5C207.1 92.9 210 87.6667 211 86L212.5 82.5L211 0.5H184V86Z" fill="#CCCCCC" fill-opacity="0.8"/>
<path d="M31 289.467V85.5V0.5H4V86C4 92 4.3 105.5 5.5 111.5C7 119 0.5 132.5 0.5 138.5C0.5 144.5 4 161.5 4 166C4 170.5 0.5 201 4 211C7.5 221 0.5 232.5 0.5 245.5C0.5 258.5 4 271.5 5.5 277C7 282.5 0.5 293 0.5 299C0.5 303.8 2.83333 315.667 4 321L31 289.467Z" fill="#CCCCCC" fill-opacity="0.8"/>
<path d="M4 321H31V289.467M4 321L31 289.467M4 321C2.83333 315.667 0.5 303.8 0.5 299C0.5 293 7 282.5 5.5 277C4 271.5 0.5 258.5 0.5 245.5C0.5 232.5 7.5 221 4 211C0.5 201 4 170.5 4 166C4 161.5 0.5 144.5 0.5 138.5C0.5 132.5 7 119 5.5 111.5C4.3 105.5 4 92 4 86V0.5H31V85.5V289.467M211 321H184V289.534M211 321L184 289.534M211 321C209.5 313.5 206.8 297.4 208 293C209.5 287.5 214 280 212.5 269.5C211 259 208 257 208 249.5C208 242 212.5 235.5 211 224C209.5 212.5 206.5 211 206.5 203.5C206.5 196.829 208 190.5 208 181.5C208 172.5 211 165.5 208 159.5C205 153.5 206.5 143.11 206.5 138.5C206.5 131.5 207.5 124.833 206.5 118C206.5 114.5 199.9 108.1 203.5 100.5C207.1 92.9 210 87.6667 211 86L212.5 82.5L211 0.5H184V86V289.534" stroke="black"/>
</svg>
